<?xml version="1.0" encoding="utf-8"?>
<!-- Generator: Adobe Illustrator 23.1.1, SVG Export Plug-In . SVG Version: 6.00 Build 0)  -->
<svg version="1.1" id="Livello_1" xmlns="http://www.w3.org/2000/svg" xmlns:xlink="http://www.w3.org/1999/xlink" x="0px" y="0px"
	 viewBox="0 0 512 512" style="enable-background:new 0 0 512 512;" xml:space="preserve">
<style type="text/css">
	.st0{fill:#676767;}
</style>
<path class="st0" d="M400,192h-16v-64C384,57.4,326.6,0,256,0S128,57.4,128,128v64h-16c-26.5,0-48,21.5-48,48v224
	c0,26.5,21.5,48,48,48h288c26.5,0,48-21.5,48-48V240C448,213.5,426.5,192,400,192z M170.7,128c0-47.1,38.3-85.3,85.3-85.3
	s85.3,38.3,85.3,85.3v64H170.7V128z"/>
</svg>
